<svg xmlns="http://www.w3.org/2000/svg" viewBox="0 0 64 64">
  <defs>
    <linearGradient id="hatBody" x1="18" y1="9" x2="46" y2="46" gradientUnits="userSpaceOnUse">
      <stop offset="0" stop-color="#A78BFA"/>
      <stop offset="1" stop-color="#60A5FA"/>
    </linearGradient>
  </defs>

  <rect width="64" height="64" rx="14" fill="#0B0D10"/>

  <!-- brim -->
  <ellipse cx="32" cy="46" rx="22" ry="5.5" fill="#60A5FA"/>

  <!-- cone with a curled wizard tip -->
  <path
    d="M20 45 C 25 28 31 17 37 10 C 40.5 6.5 42.5 10 40 15 L 44 45 Z"
    fill="url(#hatBody)"
  />

  <!-- hat band -->
  <path
    d="M22 40 Q 32 43 42 40 L 44 45 Q 32 48 20 45 Z"
    fill="#22D3EE"
  />

  <!-- sparkle near the tip -->
  <path
    d="M46 11L48.2 16.1L53.5 18.2L48.2 20.4L46 25.5L43.8 20.4L38.5 18.2L43.8 16.1L46 11Z"
    fill="#F0ABFC"
  />

  <!-- small star on the cone -->
  <circle cx="31" cy="28" r="2.6" fill="#FFFFFF" fill-opacity="0.92"/>
</svg>
